STARTFONT 2.1
COMMENT CVS:Version $Id 1.3
COMMENT
COMMENT (C) CENA/J.L. Vinot, 2002, CENA (Centre d'Etudes de la Navigation Aťrienne)
COMMENT This software is free software; you can redistribute it and/or modify it 
COMMENT under the terms of the GNU Lesser General Public License as published by the Free Software Foundation: 
COMMENT either version 2 of the License, or (at your option) any later version.
COMMENT 
COMMENT This software is distributed in the hope that it will be useful, but WITHOUT ANY WARRANTY; 
COMMENT without even the implied warranty of MERCHANTABILITY or FITNESS FOR A PARTICULAR PURPOSE.  
COMMENT See the GNU Lesser General Public License for more details.
COMMENT 
COMMENT You should have received a copy of the GNU Lesser General Public License along with this software; 
COMMENT if not, write to the Free Software Foundation, Inc., 59 Temple Place - Suite 330, Boston, MA  02111-1307, USA.
COMMENT Please refer to http://www.gnu.org/copyleft/gpl.html
COMMENT 
COMMENT This font has been originally designed by CENA/France for the specific needs of Air Traffic Control. 
COMMENT For example, it must offer good legibility and avoid any confusion between character shapes. 
COMMENT CENA would like to preserve its qualities. If you have any specific need, you can modify this font, 
COMMENT but we would like you to change its name to avoid any confusion between your new font and the original one designed by CENA.
COMMENT Note however, that as implied in the LGPL licence, you must credit CENA for the original work. 
COMMENT Finally, CENA would appreciate it if you send back any enhancement or extension made to the original work. 
COMMENT This statement must be fully included with any further distribution of the font.
COMMENT 
COMMENT to contact us: email to:  pii-contact@cena.fr
COMMENT write to: CENA, 7 avenue Edouard Belin, 31400 Toulouse, France 
FONT -CenaPii-Bleriot Radar-SemiBold-R-Condensed--24-240-75-75-P-133-ISO8859-15
SIZE 24 72 72

STARTCHAR gcid14
ENCODING 20
SWIDTH 625 0
DWIDTH 15 0
BBX 12 3 1 7
BITMAP
FFF0
FFF0
FFF0
ENDCHAR
STARTCHAR gcid15
ENCODING 21
SWIDTH 666 0
DWIDTH 16 0
BBX 14 14 1 2
BITMAP
6000
F000
F800
7C00
3E04
1F0C
0F9C
07FC
03FC
01FC
01FC
03FC
07FC
0FFC
ENDCHAR
STARTCHAR gcid16
ENCODING 22
SWIDTH 666 0
DWIDTH 16 0
BBX 14 14 1 0
BITMAP
0FFC
07FC
03FC
01FC
01FC
03FC
07FC
0F9C
1F0C
3E04
7C00
F800
F000
6000
ENDCHAR
STARTCHAR space
ENCODING 32
SWIDTH 666 0
DWIDTH 16 0
BBX 0 0 0 0
BITMAP
ENDCHAR
STARTCHAR exclam
ENCODING 33
SWIDTH 333 0
DWIDTH 8 0
BBX 3 17 2 0
BITMAP
E0
E0
E0
E0
E0
E0
E0
E0
E0
E0
E0
E0
00
00
E0
E0
E0
ENDCHAR
STARTCHAR quotedbl
ENCODING 34
SWIDTH 416 0
DWIDTH 10 0
BBX 7 5 1 12
BITMAP
EE
EE
EE
66
66
ENDCHAR
STARTCHAR numbersign
ENCODING 35
SWIDTH 666 0
DWIDTH 16 0
BBX 15 13 1 1
BITMAP
0738
0738
3FFE
3FFE
0E70
0E70
0C60
1CE0
1CE0
FFF8
FFF8
39C0
39C0
ENDCHAR
STARTCHAR dollar
ENCODING 36
SWIDTH 666 0
DWIDTH 16 0
BBX 13 22 1 -2
BITMAP
0700
0700
1FC0
7FF0
7FF0
E770
E710
E700
F700
7F00
7F80
1FE0
07F0
07F8
0778
C738
E778
FFF0
FFF0
3FC0
0700
0700
ENDCHAR
STARTCHAR percent
ENCODING 37
SWIDTH 875 0
DWIDTH 21 0
BBX 20 18 1 0
BITMAP
3E0700
770E00
E38E00
E39C00
E39C00
E3B800
773800
3E7000
007000
00E000
00E7C0
01CEE0
01DC70
039C70
039C70
071C70
070EE0
0E07C0
ENDCHAR
STARTCHAR ampersand
ENCODING 38
SWIDTH 750 0
DWIDTH 18 0
BBX 16 18 2 0
BITMAP
1F00
3FC0
71C0
71C0
71C0
7B80
7F00
3E00
3F00
7F00
F780
E3DC
E1FC
E0F8
F0F8
FFFC
7FDE
3F0F
ENDCHAR
STARTCHAR quotesingle
ENCODING 39
SWIDTH 333 0
DWIDTH 8 0
BBX 3 5 2 12
BITMAP
E0
E0
E0
60
60
ENDCHAR
STARTCHAR parenleft
ENCODING 40
SWIDTH 416 0
DWIDTH 10 0
BBX 7 23 3 -4
BITMAP
0E
1C
38
38
70
70
F0
E0
E0
E0
E0
E0
E0
E0
E0
E0
F0
70
70
38
38
1C
0E
ENDCHAR
STARTCHAR parenright
ENCODING 41
SWIDTH 416 0
DWIDTH 10 0
BBX 7 23 0 -4
BITMAP
E0
70
38
38
1C
1C
1E
0E
0E
0E
0E
0E
0E
0E
0E
0E
1E
1C
1C
38
38
70
E0
ENDCHAR
STARTCHAR asterisk
ENCODING 42
SWIDTH 500 0
DWIDTH 12 0
BBX 10 10 1 8
BITMAP
0C00
4C80
EDC0
7F80
3F00
3F00
7F80
EDC0
CCC0
0C00
ENDCHAR
STARTCHAR plus
ENCODING 43
SWIDTH 583 0
DWIDTH 14 0
BBX 13 13 1 0
BITMAP
0700
0700
0700
0700
0700
FFF8
FFF8
FFF8
0700
0700
0700
0700
0700
ENDCHAR
STARTCHAR comma
ENCODING 44
SWIDTH 416 0
DWIDTH 10 0
BBX 5 8 2 -4
BITMAP
78
78
70
F0
E0
E0
C0
C0
ENDCHAR
STARTCHAR hyphen
ENCODING 45
SWIDTH 583 0
DWIDTH 14 0
BBX 9 3 2 5
BITMAP
FF80
FF80
FF80
ENDCHAR
STARTCHAR period
ENCODING 46
SWIDTH 583 0
DWIDTH 14 0
BBX 4 4 3 0
BITMAP
F0
F0
F0
F0
ENDCHAR
STARTCHAR slash
ENCODING 47
SWIDTH 541 0
DWIDTH 13 0
BBX 13 21 0 -2
BITMAP
0038
0038
0070
0070
00E0
00E0
01C0
01C0
0380
0780
0700
0F00
0E00
1C00
1C00
3800
3800
7000
7000
E000
E000
ENDCHAR
STARTCHAR zero
ENCODING 48
SWIDTH 666 0
DWIDTH 16 0
BBX 13 18 2 0
BITMAP
0F80
3FE0
7DF0
7070
F178
E3B8
E338
E338
E738
E738
E638
E638
EE38
F478
7070
7DF0
3FE0
0F80
ENDCHAR
STARTCHAR one
ENCODING 49
SWIDTH 583 0
DWIDTH 14 0
BBX 8 18 2 0
BITMAP
07
0F
1F
3F
7F
F7
67
47
07
07
07
07
07
07
07
07
07
07
ENDCHAR
STARTCHAR two
ENCODING 50
SWIDTH 625 0
DWIDTH 15 0
BBX 12 18 1 0
BITMAP
1F00
7FC0
FFC0
71E0
60E0
00E0
00E0
01E0
01C0
03C0
0780
0F00
1E00
3C00
7800
7FF0
7FF0
7FF0
ENDCHAR
STARTCHAR three
ENCODING 51
SWIDTH 625 0
DWIDTH 15 0
BBX 12 18 1 0
BITMAP
7FE0
7FE0
7FE0
03C0
0780
0F00
1E00
3F80
3FC0
03E0
00F0
0070
0070
4070
70F0
FFE0
7FE0
1F80
ENDCHAR
STARTCHAR four
ENCODING 52
SWIDTH 625 0
DWIDTH 15 0
BBX 13 18 1 0
BITMAP
0700
0700
0F00
0E00
1E00
1C00
3C60
38E0
38E0
70E0
70E0
FFF8
FFF8
FFF8
00E0
00E0
00E0
00E0
ENDCHAR
STARTCHAR five
ENCODING 53
SWIDTH 625 0
DWIDTH 15 0
BBX 12 18 1 0
BITMAP
3FE0
3FE0
3FE0
3800
3800
3800
3E00
3F80
3FE0
03E0
00F0
0070
0070
4070
70F0
FFE0
7FE0
1F80
ENDCHAR
STARTCHAR six
ENCODING 54
SWIDTH 625 0
DWIDTH 15 0
BBX 13 18 2 0
BITMAP
03C0
0780
0F00
1E00
3C00
3800
77C0
7FF0
FDF0
F078
E038
E038
E038
F078
78F0
7FF0
3FE0
0F80
ENDCHAR
STARTCHAR seven
ENCODING 55
SWIDTH 583 0
DWIDTH 14 0
BBX 11 18 2 0
BITMAP
FFE0
FFE0
FFE0
01C0
01C0
0380
0380
0700
0700
0E00
0E00
1C00
1C00
1C00
3800
3800
3800
3800
ENDCHAR
STARTCHAR eight
ENCODING 56
SWIDTH 625 0
DWIDTH 15 0
BBX 12 18 2 0
BITMAP
0F80
3FC0
3DE0
70E0
70E0
71E0
7BC0
3F80
1F80
3FC0
7BE0
F0F0
E070
E070
F0F0
7BE0
7FE0
1F80
ENDCHAR
STARTCHAR nine
ENCODING 57
SWIDTH 625 0
DWIDTH 15 0
BBX 13 18 1 0
BITMAP
0F80
3FE0
7FF0
78F0
F078
E038
E038
E038
F078
7DF8
7FF0
1F70
00E0
01E0
03C0
0780
0F00
1E00
ENDCHAR
STARTCHAR colon
ENCODING 58
SWIDTH 416 0
DWIDTH 10 0
BBX 4 14 3 0
BITMAP
F0
F0
F0
F0
00
00
00
00
00
00
F0
F0
F0
F0
ENDCHAR
STARTCHAR semicolon
ENCODING 59
SWIDTH 416 0
DWIDTH 10 0
BBX 4 18 3 -4
BITMAP
F0
F0
F0
F0
00
00
00
00
00
00
F0
F0
F0
E0
E0
C0
C0
80
ENDCHAR
STARTCHAR less
ENCODING 60
SWIDTH 458 0
DWIDTH 11 0
BBX 9 12 1 0
BITMAP
0780
0F00
1E00
3C00
7800
F000
F000
7800
3C00
1E00
0F00
0780
ENDCHAR
STARTCHAR equal
ENCODING 61
SWIDTH 500 0
DWIDTH 12 0
BBX 10 9 1 2
BITMAP
FFC0
FFC0
FFC0
0000
0000
0000
FFC0
FFC0
FFC0
ENDCHAR
STARTCHAR greater
ENCODING 62
SWIDTH 458 0
DWIDTH 11 0
BBX 9 12 1 0
BITMAP
F000
7800
3C00
1E00
0F00
0780
0780
0F00
1E00
3C00
7800
F000
ENDCHAR
STARTCHAR question
ENCODING 63
SWIDTH 583 0
DWIDTH 14 0
BBX 12 18 1 0
BITMAP
0F80
3FE0
7FE0
F0F0
E070
E070
00F0
01E0
03C0
0780
0F00
0F00
0F00
0000
0E00
1F00
1F00
0E00
ENDCHAR
STARTCHAR at
ENCODING 64
SWIDTH 958 0
DWIDTH 23 0
BBX 23 21 0 -3
BITMAP
00FF00
03FFC0
0FEFF0
1F00F8
3C003C
78001C
703F1E
F0FF0E
E1E70E
E3C70E
E3870E
E3870E
E7870E
E3870C
73CF9C
71FFF8
38F9E0
3C0000
1F0040
0FFFC0
01FF00
ENDCHAR
STARTCHAR A
ENCODING 65
SWIDTH 666 0
DWIDTH 16 0
BBX 14 18 1 0
BITMAP
0300
0780
0780
0FC0
0FC0
0CC0
1CE0
1CE0
1CE0
3870
3870
3870
7FF8
7FF8
7FF8
E01C
E01C
E01C
ENDCHAR
STARTCHAR B
ENCODING 66
SWIDTH 583 0
DWIDTH 14 0
BBX 11 18 2 0
BITMAP
FC00
FF00
FF80
E380
E3C0
E380
E780
FF00
FF80
FFC0
E1E0
E0E0
E0E0
E0E0
E1E0
FFC0
FFC0
FF00
ENDCHAR
STARTCHAR C
ENCODING 67
SWIDTH 625 0
DWIDTH 15 0
BBX 12 18 2 0
BITMAP
07C0
1FF0
3FE0
7C60
7000
F000
E000
E000
E000
E000
E000
E000
F000
7000
7C60
3FE0
1FF0
07C0
ENDCHAR
STARTCHAR D
ENCODING 68
SWIDTH 625 0
DWIDTH 15 0
BBX 12 18 2 0
BITMAP
FE00
FF80
FFC0
E3E0
E0E0
E0F0
E070
E070
E070
E070
E070
E070
E0F0
E0E0
E3E0
FFC0
FF80
FE00
ENDCHAR
STARTCHAR E
ENCODING 69
SWIDTH 500 0
DWIDTH 12 0
BBX 10 18 2 0
BITMAP
FF80
FF80
FF80
E000
E000
E000
E000
FF00
FF00
FF00
E000
E000
E000
E000
E000
FFC0
FFC0
FFC0
ENDCHAR
STARTCHAR F
ENCODING 70
SWIDTH 458 0
DWIDTH 11 0
BBX 9 18 2 0
BITMAP
FF80
FF80
FF80
E000
E000
E000
E000
FF00
FF00
FF00
E000
E000
E000
E000
E000
E000
E000
E000
ENDCHAR
STARTCHAR G
ENCODING 71
SWIDTH 666 0
DWIDTH 16 0
BBX 13 18 2 0
BITMAP
07C0
1FF0
3FF0
7C60
7000
F000
E000
E000
E3F8
E3F8
E3F8
E038
F038
7038
7C38
3FF8
1FF8
07F8
ENDCHAR
STARTCHAR H
ENCODING 72
SWIDTH 583 0
DWIDTH 14 0
BBX 11 18 2 0
BITMAP
E0E0
E0E0
E0E0
E0E0
E0E0
E0E0
E0E0
FFE0
FFE0
FFE0
E0E0
E0E0
E0E0
E0E0
E0E0
E0E0
E0E0
E0E0
ENDCHAR
STARTCHAR I
ENCODING 73
SWIDTH 375 0
DWIDTH 9 0
BBX 3 18 4 0
BITMAP
E0
E0
E0
E0
E0
E0
E0
E0
E0
E0
E0
E0
E0
E0
E0
E0
E0
E0
ENDCHAR
STARTCHAR J
ENCODING 74
SWIDTH 375 0
DWIDTH 9 0
BBX 7 18 1 0
BITMAP
0E
0E
0E
0E
0E
0E
0E
0E
0E
0E
0E
0E
0E
0E
1E
FC
FC
F0
ENDCHAR
STARTCHAR K
ENCODING 75
SWIDTH 625 0
DWIDTH 15 0
BBX 12 18 2 0
BITMAP
E0E0
E1E0
E3C0
E780
EF00
FE00
FC00
FC00
FE00
EE00
EF00
E700
E380
E3C0
E1C0
E0E0
E0F0
E070
ENDCHAR
STARTCHAR L
ENCODING 76
SWIDTH 458 0
DWIDTH 11 0
BBX 9 18 2 0
BITMAP
E000
E000
E000
E000
E000
E000
E000
E000
E000
E000
E000
E000
E000
E000
E000
FF80
FF80
FF80
ENDCHAR
STARTCHAR M
ENCODING 77
SWIDTH 750 0
DWIDTH 18 0
BBX 15 18 2 0
BITMAP
E00E
E00E
F01E
F01E
F01E
F83E
F83E
FC7E
FC7E
EC6E
EEEE
EEEE
E7CE
E7CE
E7CE
E38E
E38E
E10E
ENDCHAR
STARTCHAR N
ENCODING 78
SWIDTH 625 0
DWIDTH 15 0
BBX 12 18 2 0
BITMAP
E070
F070
F070
F870
F870
FC70
FC70
EE70
EE70
E770
E770
E3F0
E3F0
E1F0
E1F0
E0F0
E0F0
E070
ENDCHAR
STARTCHAR O
ENCODING 79
SWIDTH 750 0
DWIDTH 18 0
BBX 15 18 2 0
BITMAP
07C0
1FF0
3FF8
7C7C
701C
F01E
E00E
E00E
E00E
E00E
E00E
E00E
F01E
701C
7C7C
3FF8
1FF0
07C0
ENDCHAR
STARTCHAR P
ENCODING 80
SWIDTH 583 0
DWIDTH 14 0
BBX 11 18 2 0
BITMAP
FE00
FF80
FFC0
E3C0
E1E0
E0E0
E0E0
E0E0
E1E0
E3C0
FFC0
FF80
FE00
E000
E000
E000
E000
E000
ENDCHAR
STARTCHAR Q
ENCODING 81
SWIDTH 791 0
DWIDTH 19 0
BBX 17 18 2 0
BITMAP
07C000
1FF000
3FF800
7C7C00
701C00
F01E00
E00E00
E00E00
E00E00
E70E00
EFCE00
FFEE00
F8FE00
707C00
7C7C00
3FFE00
1FEF00
07C780
ENDCHAR
STARTCHAR R
ENCODING 82
SWIDTH 583 0
DWIDTH 14 0
BBX 12 18 2 0
BITMAP
FC00
FF00
FF80
E3C0
E1C0
E1C0
E1C0
E1C0
E3C0
FF80
FF00
FE00
EF00
E780
E3C0
E1E0
E0F0
E070
ENDCHAR
STARTCHAR S
ENCODING 83
SWIDTH 583 0
DWIDTH 14 0
BBX 12 18 1 0
BITMAP
0F00
3FC0
3FE0
79C0
7000
7800
3C00
3F00
0F80
07E0
01E0
00F0
0070
6070
70F0
FFE0
7FE0
1F80
ENDCHAR
STARTCHAR T
ENCODING 84
SWIDTH 500 0
DWIDTH 12 0
BBX 11 18 1 0
BITMAP
FFE0
FFE0
FFE0
0E00
0E00
0E00
0E00
0E00
0E00
0E00
0E00
0E00
0E00
0E00
0E00
0E00
0E00
0E00
ENDCHAR
STARTCHAR U
ENCODING 85
SWIDTH 625 0
DWIDTH 15 0
BBX 12 18 2 0
BITMAP
E070
E070
E070
E070
E070
E070
E070
E070
E070
E070
E070
E070
E070
E070
F0F0
7FE0
7FE0
1F80
ENDCHAR
STARTCHAR V
ENCODING 86
SWIDTH 625 0
DWIDTH 15 0
BBX 14 18 1 0
BITMAP
E01C
E01C
E01C
7038
7038
7038
3870
3870
3870
1CE0
1CE0
1CE0
0FC0
0FC0
0FC0
0780
0780
0300
ENDCHAR
STARTCHAR W
ENCODING 87
SWIDTH 916 0
DWIDTH 22 0
BBX 20 18 1 0
BITMAP
E06070
E06070
E0F070
E0F070
70F0E0
71F8E0
71F8E0
71F8E0
3999C0
3B9DC0
3B9DC0
3B9DC0
1F0F80
1F0F80
1F0F80
1E0780
0E0700
0E0700
ENDCHAR
STARTCHAR X
ENCODING 88
SWIDTH 583 0
DWIDTH 14 0
BBX 13 18 1 0
BITMAP
7070
78F0
38E0
3DE0
1DC0
1FC0
0F80
0F80
0700
0F80
0F80
1FC0
1DC0
3DE0
38E0
78F0
7070
F078
ENDCHAR
STARTCHAR Y
ENCODING 89
SWIDTH 541 0
DWIDTH 13 0
BBX 11 18 1 0
BITMAP
E0E0
E0E0
E0E0
71C0
71C0
3180
3B80
3B80
1F00
1F00
0E00
0E00
0E00
0E00
0E00
0E00
0E00
0E00
ENDCHAR
STARTCHAR Z
ENCODING 90
SWIDTH 583 0
DWIDTH 14 0
BBX 12 18 2 0
BITMAP
FFE0
FFE0
FFC0
03C0
0380
0780
0700
0F00
0E00
1E00
1C00
3C00
3800
7800
7000
FFF0
FFF0
FFF0
ENDCHAR
STARTCHAR bracketleft
ENCODING 91
SWIDTH 416 0
DWIDTH 10 0
BBX 5 22 4 -4
BITMAP
F8
E0
E0
E0
E0
E0
E0
E0
E0
E0
E0
E0
E0
E0
E0
E0
E0
E0
E0
E0
E0
F8
ENDCHAR
STARTCHAR backslash
ENCODING 92
SWIDTH 541 0
DWIDTH 13 0
BBX 13 21 0 -2
BITMAP
E000
E000
7000
7000
3800
3800
1C00
1C00
0E00
0E00
0700
0700
0380
0380
01C0
01C0
00E0
00E0
0070
0070
0038
ENDCHAR
STARTCHAR bracketright
ENCODING 93
SWIDTH 416 0
DWIDTH 10 0
BBX 5 22 1 -4
BITMAP
F8
38
38
38
38
38
38
38
38
38
38
38
38
38
38
38
38
38
38
38
38
F8
ENDCHAR
STARTCHAR asciicircum
ENCODING 94
SWIDTH 666 0
DWIDTH 16 0
BBX 13 6 2 12
BITMAP
0700
0F80
1FC0
3DE0
78F0
F078
ENDCHAR
STARTCHAR underscore
ENCODING 95
SWIDTH 666 0
DWIDTH 16 0
BBX 16 2 0 -5
BITMAP
FFFF
FFFF
ENDCHAR
STARTCHAR a
ENCODING 97
SWIDTH 541 0
DWIDTH 13 0
BBX 10 14 2 0
BITMAP
1F00
7F80
7BC0
21C0
03C0
0FC0
3FC0
7DC0
F1C0
E1C0
E3C0
FFC0
7FC0
3DC0
ENDCHAR
STARTCHAR b
ENCODING 98
SWIDTH 583 0
DWIDTH 14 0
BBX 11 18 2 0
BITMAP
E000
E000
E000
E000
EF00
FF80
FFC0
F1C0
E0E0
E0E0
E0E0
E0E0
E0E0
E0E0
E1C0
FFC0
FF80
FE00
ENDCHAR
STARTCHAR c
ENCODING 99
SWIDTH 458 0
DWIDTH 11 0
BBX 8 14 2 0
BITMAP
0F
3F
7B
70
E0
E0
E0
E0
E0
E0
70
7B
3F
0F
ENDCHAR
STARTCHAR d
ENCODING 100
SWIDTH 583 0
DWIDTH 14 0
BBX 11 18 2 0
BITMAP
00E0
00E0
00E0
00E0
0EE0
3FE0
7FE0
71E0
E0E0
E0E0
E0E0
E0E0
E0E0
E0E0
70E0
7FE0
3FE0
0FE0
ENDCHAR
STARTCHAR e
ENCODING 101
SWIDTH 541 0
DWIDTH 13 0
BBX 10 14 2 0
BITMAP
1F00
3F80
7BC0
71C0
E1C0
E3C0
EFC0
FF00
FC00
F000
E080
7B80
7F80
1F00
ENDCHAR
STARTCHAR f
ENCODING 102
SWIDTH 416 0
DWIDTH 10 0
BBX 9 19 1 0
BITMAP
0780
1F80
1E80
3800
3800
FF00
FF00
FF00
3800
3800
3800
3800
3800
3800
3800
3800
3800
3800
3800
ENDCHAR
STARTCHAR g
ENCODING 103
SWIDTH 583 0
DWIDTH 14 0
BBX 11 18 2 -5
BITMAP
0FE0
3FE0
7FE0
70E0
E0E0
E0E0
E0E0
E0E0
E0E0
71E0
7FE0
3FE0
0EE0
00E0
00E0
1BE0
1FC0
1F80
ENDCHAR
STARTCHAR h
ENCODING 104
SWIDTH 583 0
DWIDTH 14 0
BBX 10 18 2 0
BITMAP
E000
E000
E000
E000
EF00
FF80
FFC0
F1C0
E1C0
E1C0
E1C0
E1C0
E1C0
E1C0
E1C0
E1C0
E1C0
E1C0
ENDCHAR
STARTCHAR i
ENCODING 105
SWIDTH 291 0
DWIDTH 7 0
BBX 3 19 3 0
BITMAP
E0
E0
E0
00
00
60
E0
E0
E0
E0
E0
E0
E0
E0
E0
E0
E0
E0
E0
ENDCHAR
STARTCHAR j
ENCODING 106
SWIDTH 375 0
DWIDTH 9 0
BBX 6 24 1 -5
BITMAP
1C
1C
1C
00
00
0C
1C
1C
1C
1C
1C
1C
1C
1C
1C
1C
1C
1C
1C
1C
1C
BC
F8
F0
ENDCHAR
STARTCHAR k
ENCODING 107
SWIDTH 541 0
DWIDTH 13 0
BBX 11 18 2 0
BITMAP
E000
E000
E000
E000
E1C0
E3C0
E780
EF00
FE00
FC00
FC00
FE00
EF00
E700
E780
E3C0
E1C0
E1E0
ENDCHAR
STARTCHAR l
ENCODING 108
SWIDTH 375 0
DWIDTH 9 0
BBX 6 18 2 0
BITMAP
E0
E0
E0
E0
E0
E0
E0
E0
E0
E0
E0
E0
E0
E0
F0
7C
7C
1C
ENDCHAR
STARTCHAR m
ENCODING 109
SWIDTH 833 0
DWIDTH 20 0
BBX 17 14 2 0
BITMAP
EF1E00
FFBF00
FFFF80
F1E380
E1C380
E1C380
E1C380
E1C380
E1C380
E1C380
E1C380
E1C380
E1C380
E1C380
ENDCHAR
STARTCHAR n
ENCODING 110
SWIDTH 541 0
DWIDTH 13 0
BBX 10 14 2 0
BITMAP
EF00
FF80
FFC0
F1C0
E1C0
E1C0
E1C0
E1C0
E1C0
E1C0
E1C0
E1C0
E1C0
E1C0
ENDCHAR
STARTCHAR o
ENCODING 111
SWIDTH 625 0
DWIDTH 15 0
BBX 12 14 2 0
BITMAP
0F00
3FC0
7FE0
70E0
E070
E070
E070
E070
E070
E070
70E0
7FE0
3FC0
0F00
ENDCHAR
STARTCHAR p
ENCODING 112
SWIDTH 583 0
DWIDTH 14 0
BBX 11 18 2 -4
BITMAP
FE00
FF80
FFC0
E1C0
E0E0
E0E0
E0E0
E0E0
E0E0
E0E0
F1C0
FFC0
FF80
EE00
E000
E000
E000
E000
ENDCHAR
STARTCHAR q
ENCODING 113
SWIDTH 583 0
DWIDTH 14 0
BBX 11 18 2 -4
BITMAP
0FE0
3FE0
7FE0
70E0
E0E0
E0E0
E0E0
E0E0
E0E0
E0E0
71E0
7FE0
3FE0
0EE0
00E0
00E0
00E0
00E0
ENDCHAR
STARTCHAR r
ENCODING 114
SWIDTH 416 0
DWIDTH 10 0
BBX 7 14 2 0
BITMAP
EE
FE
FE
F0
E0
E0
E0
E0
E0
E0
E0
E0
E0
E0
ENDCHAR
STARTCHAR s
ENCODING 115
SWIDTH 500 0
DWIDTH 12 0
BBX 10 14 1 0
BITMAP
0E00
3F80
7B80
7100
7000
7C00
3F00
0F80
03C0
01C0
61C0
FBC0
7F80
1F00
ENDCHAR
STARTCHAR t
ENCODING 116
SWIDTH 416 0
DWIDTH 10 0
BBX 8 18 1 0
BITMAP
18
38
38
38
FF
FF
FF
38
38
38
38
38
38
38
3C
1F
1F
07
ENDCHAR
STARTCHAR u
ENCODING 117
SWIDTH 541 0
DWIDTH 13 0
BBX 10 14 2 0
BITMAP
E1C0
E1C0
E1C0
E1C0
E1C0
E1C0
E1C0
E1C0
E1C0
E1C0
E3C0
FFC0
7FC0
3DC0
ENDCHAR
STARTCHAR v
ENCODING 118
SWIDTH 541 0
DWIDTH 13 0
BBX 11 14 2 0
BITMAP
E0E0
E0E0
E0E0
71C0
71C0
71C0
7380
3B80
3B80
3F00
1F00
1F00
0E00
0E00
ENDCHAR
STARTCHAR w
ENCODING 119
SWIDTH 791 0
DWIDTH 19 0
BBX 17 14 1 0
BITMAP
E00380
E1C380
E1C380
71C700
71C700
73E700
73EE00
3BEE00
3B6E00
3F7E00
1E7C00
1E3C00
1E3C00
0C1800
ENDCHAR
STARTCHAR x
ENCODING 120
SWIDTH 500 0
DWIDTH 12 0
BBX 10 14 2 0
BITMAP
E1C0
E1C0
7380
7380
3F00
3F00
1E00
1E00
3F00
3F00
7380
7380
E1C0
E1C0
ENDCHAR
STARTCHAR y
ENCODING 121
SWIDTH 583 0
DWIDTH 14 0
BBX 13 19 1 -5
BITMAP
E038
7038
7038
7038
3870
3870
1C70
1CE0
1CE0
0EE0
0FC0
07C0
07C0
0380
0380
0700
0700
0E00
1E00
ENDCHAR
STARTCHAR z
ENCODING 122
SWIDTH 541 0
DWIDTH 13 0
BBX 11 14 1 0
BITMAP
7FC0
7F80
7F80
0700
0700
0E00
0E00
1C00
1C00
3800
3800
7FE0
7FE0
FFE0
ENDCHAR
STARTCHAR braceleft
ENCODING 123
SWIDTH 458 0
DWIDTH 11 0
BBX 9 23 1 -4
BITMAP
0780
0E00
1E00
1E00
1E00
1E00
1E00
1E00
1E00
1C00
3C00
F000
3C00
1C00
1E00
1E00
1E00
1E00
1E00
1E00
1E00
0E00
0780
ENDCHAR
STARTCHAR bar
ENCODING 124
SWIDTH 416 0
DWIDTH 10 0
BBX 3 22 4 -4
BITMAP
E0
E0
E0
E0
E0
E0
E0
E0
E0
E0
E0
E0
E0
E0
E0
E0
E0
E0
E0
E0
E0
E0
ENDCHAR
STARTCHAR braceright
ENCODING 125
SWIDTH 458 0
DWIDTH 11 0
BBX 9 23 1 -4
BITMAP
F000
3800
3C00
3C00
3C00
3C00
3C00
3C00
3C00
1C00
1E00
0780
1E00
1C00
3C00
3C00
3C00
3C00
3C00
3C00
3C00
3800
F000
ENDCHAR
STARTCHAR Euro
ENCODING 164
SWIDTH 625 0
DWIDTH 15 0
BBX 14 18 1 0
BITMAP
01F0
07FC
0FFC
1F18
1C00
3C00
FFF8
FFF0
3800
FFF0
FFE0
3800
3C00
1C00
1F18
0FF8
07FC
01F0
ENDCHAR
STARTCHAR degree
ENCODING 176
SWIDTH 458 0
DWIDTH 11 0
BBX 9 8 1 10
BITMAP
3E00
7700
E380
E380
E380
E380
7700
3E00
ENDCHAR
STARTCHAR Agrave
ENCODING 192
SWIDTH 666 0
DWIDTH 16 0
BBX 14 22 1 0
BITMAP
0E00
0700
0300
0000
0300
0780
0780
0FC0
0FC0
0CC0
1CE0
1CE0
1CE0
3870
3870
3870
7FF8
7FF8
7FF8
E01C
E01C
E01C
ENDCHAR
STARTCHAR Acircumflex
ENCODING 194
SWIDTH 666 0
DWIDTH 16 0
BBX 14 22 1 0
BITMAP
0300
0780
0DC0
0000
0300
0780
0780
0FC0
0FC0
0CC0
1CE0
1CE0
1CE0
3870
3870
3870
7FF8
7FF8
7FF8
E01C
E01C
E01C
ENDCHAR
STARTCHAR Ccedilla
ENCODING 199
SWIDTH 625 0
DWIDTH 15 0
BBX 12 23 3 -5
BITMAP
07E0
1FF0
3FE0
7C60
7000
F000
E000
E000
E000
E000
E000
E000
F000
7000
7C60
3FE0
1FF0
07E0
07E0
00E0
00E0
0FE0
0F80
ENDCHAR
STARTCHAR Egrave
ENCODING 200
SWIDTH 500 0
DWIDTH 12 0
BBX 10 22 2 0
BITMAP
3800
1C00
0C00
0000
FF80
FF80
FF80
E000
E000
E000
E000
FF00
FF00
FF00
E000
E000
E000
E000
E000
FFC0
FFC0
FFC0
ENDCHAR
STARTCHAR Eacute
ENCODING 201
SWIDTH 500 0
DWIDTH 12 0
BBX 10 22 2 0
BITMAP
0700
0E00
0C00
0000
FF80
FF80
FF80
E000
E000
E000
E000
FF00
FF00
FF00
E000
E000
E000
E000
E000
FFC0
FFC0
FFC0
ENDCHAR
STARTCHAR Ecircumflex
ENCODING 202
SWIDTH 500 0
DWIDTH 12 0
BBX 10 22 2 0
BITMAP
0C00
1E00
3700
0000
FF80
FF80
FF80
E000
E000
E000
E000
FF00
FF00
FF00
E000
E000
E000
E000
E000
FFC0
FFC0
FFC0
ENDCHAR
STARTCHAR Edieresis
ENCODING 203
SWIDTH 500 0
DWIDTH 12 0
BBX 10 22 2 0
BITMAP
7380
7380
2100
0000
FF80
FF80
FF80
E000
E000
E000
E000
FF00
FF00
FF00
E000
E000
E000
E000
E000
FFC0
FFC0
FFC0
ENDCHAR
STARTCHAR Icircumflex
ENCODING 206
SWIDTH 375 0
DWIDTH 9 0
BBX 6 22 2 0
BITMAP
30
78
DC
00
38
38
38
38
38
38
38
38
38
38
38
38
38
38
38
38
38
38
ENDCHAR
STARTCHAR Idieresis
ENCODING 207
SWIDTH 375 0
DWIDTH 9 0
BBX 8 22 1 0
BITMAP
E7
E7
42
00
38
38
38
38
38
38
38
38
38
38
38
38
38
38
38
38
38
38
ENDCHAR
STARTCHAR Ocircumflex
ENCODING 212
SWIDTH 750 0
DWIDTH 18 0
BBX 15 22 2 0
BITMAP
0180
03C0
06E0
0000
07C0
1FF0
3FF8
7C7C
701C
F01E
E00E
E00E
E00E
E00E
E00E
E00E
F01E
701C
7C7C
3FF8
1FF0
07C0
ENDCHAR
STARTCHAR Ugrave
ENCODING 217
SWIDTH 625 0
DWIDTH 15 0
BBX 12 22 2 0
BITMAP
1C00
0E00
0600
0000
E070
E070
E070
E070
E070
E070
E070
E070
E070
E070
E070
E070
E070
E070
F0F0
7FE0
7FE0
1F80
ENDCHAR
STARTCHAR Ucircumflex
ENCODING 219
SWIDTH 625 0
DWIDTH 15 0
BBX 12 22 2 0
BITMAP
0600
0F00
1B80
0000
E070
E070
E070
E070
E070
E070
E070
E070
E070
E070
E070
E070
E070
E070
F0F0
7FE0
7FE0
1F80
ENDCHAR
STARTCHAR Udieresis
ENCODING 220
SWIDTH 625 0
DWIDTH 15 0
BBX 12 22 2 0
BITMAP
39C0
39C0
1080
0000
E070
E070
E070
E070
E070
E070
E070
E070
E070
E070
E070
E070
E070
E070
F0F0
7FE0
7FE0
1F80
ENDCHAR
STARTCHAR agrave
ENCODING 224
SWIDTH 541 0
DWIDTH 13 0
BBX 10 19 3 0
BITMAP
3800
1C00
0C00
0000
0000
1F00
7F80
7BC0
21C0
03C0
0FC0
3FC0
7DC0
F1C0
E1C0
E3C0
FFC0
7FC0
3DC0
ENDCHAR
STARTCHAR acircumflex
ENCODING 226
SWIDTH 541 0
DWIDTH 13 0
BBX 10 19 3 0
BITMAP
0C00
1E00
3700
0000
0000
1F00
7F80
7BC0
21C0
03C0
0FC0
3FC0
7DC0
F1C0
E1C0
E3C0
FFC0
7FC0
3DC0
ENDCHAR
STARTCHAR ccedilla
ENCODING 231
SWIDTH 458 0
DWIDTH 11 0
BBX 8 18 2 -4
BITMAP
0F
3F
7B
70
E0
E0
E0
E0
E0
E0
70
7B
3F
0F
0E
07
3F
3E
ENDCHAR
STARTCHAR egrave
ENCODING 232
SWIDTH 541 0
DWIDTH 13 0
BBX 10 19 2 0
BITMAP
3800
1C00
0C00
0000
0000
1F00
3F80
7BC0
71C0
E1C0
E3C0
EFC0
FF00
FC00
F000
E080
7B80
7F80
1F00
ENDCHAR
STARTCHAR eacute
ENCODING 233
SWIDTH 541 0
DWIDTH 13 0
BBX 10 19 2 0
BITMAP
0700
0E00
0C00
0000
0000
1F00
3F80
7BC0
71C0
E1C0
E3C0
EFC0
FF00
FC00
F000
E080
7B80
7F80
1F00
ENDCHAR
STARTCHAR ecircumflex
ENCODING 234
SWIDTH 541 0
DWIDTH 13 0
BBX 10 19 2 0
BITMAP
0600
0F00
1B80
0000
0000
1F00
3F80
7BC0
71C0
E1C0
E3C0
EFC0
FF00
FC00
F000
E080
7B80
7F80
1F00
ENDCHAR
STARTCHAR edieresis
ENCODING 235
SWIDTH 541 0
DWIDTH 13 0
BBX 10 19 2 0
BITMAP
7380
7380
2100
0000
0000
1F00
3F80
7BC0
71C0
E1C0
E3C0
EFC0
FF00
FC00
F000
E080
7B80
7F80
1F00
ENDCHAR
STARTCHAR icircumflex
ENCODING 238
SWIDTH 291 0
DWIDTH 7 0
BBX 7 19 1 0
BITMAP
38
7C
EE
00
00
18
38
38
38
38
38
38
38
38
38
38
38
38
38
ENDCHAR
STARTCHAR idieresis
ENCODING 239
SWIDTH 291 0
DWIDTH 7 0
BBX 8 19 1 0
BITMAP
E7
E7
42
00
00
18
38
38
38
38
38
38
38
38
38
38
38
38
38
ENDCHAR
STARTCHAR ocircumflex
ENCODING 244
SWIDTH 625 0
DWIDTH 15 0
BBX 12 19 2 0
BITMAP
0600
0F00
1B80
0000
0000
0F00
3FC0
7FE0
70E0
E070
E070
E070
E070
E070
E070
70E0
7FE0
3FC0
0F00
ENDCHAR
STARTCHAR ugrave
ENCODING 249
SWIDTH 541 0
DWIDTH 13 0
BBX 10 19 2 0
BITMAP
3800
1C00
0C00
0000
0000
E1C0
E1C0
E1C0
E1C0
E1C0
E1C0
E1C0
E1C0
E1C0
E1C0
E3C0
FFC0
7FC0
3DC0
ENDCHAR
STARTCHAR ucircumflex
ENCODING 251
SWIDTH 541 0
DWIDTH 13 0
BBX 10 19 2 0
BITMAP
0C00
1E00
3700
0000
0000
E1C0
E1C0
E1C0
E1C0
E1C0
E1C0
E1C0
E1C0
E1C0
E1C0
E3C0
FFC0
7FC0
3DC0
ENDCHAR
STARTCHAR udieresis
ENCODING 252
SWIDTH 541 0
DWIDTH 13 0
BBX 10 19 2 0
BITMAP
7380
7380
2100
0000
0000
E1C0
E1C0
E1C0
E1C0
E1C0
E1C0
E1C0
E1C0
E1C0
E1C0
E3C0
FFC0
7FC0
3DC0
ENDCHAR
ENDFONT
